<svg xmlns="http://www.w3.org/2000/svg" viewBox="0 0 600 700" fill="none"><defs><linearGradient id="heroBg" x1="0%" y1="0%" x2="0%" y2="100%"><stop offset="0%" stop-color="#EAEEF6"/><stop offset="100%" stop-color="#F8F7F4"/></linearGradient><linearGradient id="houseWall" x1="0%" y1="0%" x2="100%" y2="0%"><stop offset="0%" stop-color="#FFFFFF"/><stop offset="100%" stop-color="#F8F7F4"/></linearGradient><linearGradient id="cleanFade" x1="0%" y1="0%" x2="100%" y2="0%"><stop offset="0%" stop-color="#152B4F" stop-opacity="0.18"/><stop offset="100%" stop-color="#152B4F" stop-opacity="0"/></linearGradient><radialGradient id="glow" cx="50%" cy="50%" r="50%"><stop offset="0%" stop-color="#152B4F" stop-opacity="0.06"/><stop offset="100%" stop-color="#152B4F" stop-opacity="0"/></radialGradient></defs><rect width="600" height="700" fill="url(#heroBg)"/><circle cx="300" cy="350" r="280" fill="url(#glow)"/><line x1="0" y1="540" x2="600" y2="540" stroke="#E8E5DC" stroke-width="1"/><line x1="0" y1="600" x2="600" y2="600" stroke="#E8E5DC" stroke-width="1" opacity="0.6"/><path d="M120 540 L120 320 L300 200 L480 320 L480 540 Z" fill="url(#houseWall)" stroke="#152B4F" stroke-width="2.5"/><path d="M120 320 L300 200 L480 320" fill="none" stroke="#0F1117" stroke-width="3" stroke-linejoin="round"/><path d="M120 320 L300 200 L480 320 L480 340 L120 340 Z" fill="#0F1117" opacity="0.06"/><rect x="115" y="318" width="370" height="4" fill="#B8943F" rx="1"/><rect x="280" y="430" width="50" height="110" fill="#152B4F" opacity="0.85" rx="2"/><circle cx="320" cy="488" r="2.5" fill="#B8943F"/><rect x="278" y="428" width="54" height="114" fill="none" stroke="#B8943F" stroke-width="1" rx="2"/><rect x="170" y="370" width="70" height="80" fill="#152B4F" opacity="0.12" stroke="#152B4F" stroke-width="2" rx="2"/><line x1="205" y1="370" x2="205" y2="450" stroke="#152B4F" stroke-width="1" opacity="0.5"/><line x1="170" y1="410" x2="240" y2="410" stroke="#152B4F" stroke-width="1" opacity="0.5"/><path d="M180 380 L210 380 L180 410 Z" fill="#FFFFFF" opacity="0.4"/><rect x="370" y="370" width="70" height="80" fill="#152B4F" opacity="0.12" stroke="#152B4F" stroke-width="2" rx="2"/><line x1="405" y1="370" x2="405" y2="450" stroke="#152B4F" stroke-width="1" opacity="0.5"/><line x1="370" y1="410" x2="440" y2="410" stroke="#152B4F" stroke-width="1" opacity="0.5"/><path d="M380 380 L410 380 L380 410 Z" fill="#FFFFFF" opacity="0.4"/><path d="M260 540 L340 540 L380 700 L220 700 Z" fill="#FFFFFF" stroke="#152B4F" stroke-width="1.5"/><line x1="280" y1="600" x2="320" y2="600" stroke="#152B4F" stroke-width="0.6" opacity="0.3"/><line x1="260" y1="660" x2="340" y2="660" stroke="#152B4F" stroke-width="0.6" opacity="0.3"/><ellipse cx="100" cy="555" rx="60" ry="6" fill="#152B4F" opacity="0.06"/><ellipse cx="500" cy="555" rx="60" ry="6" fill="#152B4F" opacity="0.06"/><g opacity="0.85"><circle cx="60" cy="490" r="36" fill="#152B4F" opacity="0.18"/><rect x="56" y="510" width="8" height="40" fill="#152B4F" opacity="0.4"/><circle cx="540" cy="500" r="28" fill="#152B4F" opacity="0.18"/><rect x="536" y="515" width="8" height="35" fill="#152B4F" opacity="0.4"/></g><g><line x1="460" y1="100" x2="540" y2="60" stroke="#0F1117" stroke-width="6" stroke-linecap="round"/><line x1="455" y1="105" x2="465" y2="115" stroke="#0F1117" stroke-width="5" stroke-linecap="round"/><circle cx="540" cy="60" r="7" fill="#B8943F"/></g><g><path d="M460 100 Q 380 130 280 200" stroke="#152B4F" stroke-width="1.4" stroke-linecap="round" opacity="0.55" stroke-dasharray="4 6" fill="none"/><path d="M460 100 Q 360 150 240 230" stroke="#152B4F" stroke-width="1.2" stroke-linecap="round" opacity="0.45" stroke-dasharray="4 6" fill="none"/><path d="M460 100 Q 340 170 200 260" stroke="#152B4F" stroke-width="1" stroke-linecap="round" opacity="0.35" stroke-dasharray="4 6" fill="none"/></g><g fill="#B8943F"><g transform="translate(200 250)"><path d="M0 -8 L2 -2 L8 0 L2 2 L0 8 L-2 2 L-8 0 L-2 -2 Z"/></g><g transform="translate(390 290)" opacity="0.85"><path d="M0 -5 L1.3 -1.3 L5 0 L1.3 1.3 L0 5 L-1.3 1.3 L-5 0 L-1.3 -1.3 Z"/></g></g><rect x="120" y="320" width="180" height="220" fill="url(#cleanFade)"/></svg>